# xmcd CD database file
#
# Track frame offsets:
#	150
#	16710
#	39874
#	54992
#	78888
#	95257
#	119541
#	138346
#	160479
#	177424
#	193703
#	210946
#
# Disc length: 3045 seconds
#
# Revision: 0
# Processed by: cddbd v1.5.1PL0 Copyright (c) Steve Scherf et al.
# Submitted via: CDex 1.51
#
DISCID=8f0be30c
DTITLE=Jane Monheit - Taking a Chance on Love
DYEAR=2004
DGENRE=Jazz
TTITLE0=Honeysuckle Rose
TTITLE1=In the Still of the Night
TTITLE2=Taking a Chance on Love
TTITLE3=Bill
TTITLE4=I Won't Dance
TTITLE5=Too Late Now
TTITLE6=Why Can't You Behave?
TTITLE7=Do I Love You?
TTITLE8=Love Me or Leave Me
TTITLE9=Embraceable You
TTITLE10=Dancing in the Dark
TTITLE11=Over the Rainbow
EXTD=YEAR: 2004
EXTT0=
EXTT1=
EXTT2=
EXTT3=
EXTT4=
EXTT5=
EXTT6=
EXTT7=
EXTT8=
EXTT9=
EXTT10=
EXTT11=
PLAYORDER=
